<?xml version="1.0" encoding="iso-8859-1"?>
<!-- Generator: Adobe Illustrator 19.0.0, SVG Export Plug-In . SVG Version: 6.00 Build 0)  -->
<svg version="1.1" id="Capa_1" xmlns="http://www.w3.org/2000/svg" xmlns:xlink="http://www.w3.org/1999/xlink" x="0px" y="0px"
	 viewBox="0 0 512.001 512.001" style="enable-background:new 0 0 512.001 512.001;" xml:space="preserve">
<g>
	<g>
		<path d="M348.691,279.542c15.675,0,30.087,7.912,38.549,21.165l4.445,6.962l8.25,0.001c0.017,0,0.033,0,0.05,0
			c23.061,0,41.901-18.744,42.009-41.806l0.586-126.21l-127.926-0.764c-4.203-0.007-7.899-2.231-9.977-5.56
			c16.664-14.313,26.348-35.113,26.348-57.47c0-20.931-8.34-40.418-23.482-54.874C292.407,6.535,272.535-0.879,251.574,0.083
			c-38.968,1.808-70.686,33.765-72.208,72.754c-0.908,23.213,8.999,45.539,26.339,60.51c-2.05,3.345-5.721,5.6-9.908,5.65
			l-126.375-0.909v373.912H441.09l0.731-126.922c0.134-22.956-18.436-41.904-41.335-42.237l-8.8-0.005l-4.445,6.962
			c-8.858,13.871-23.959,21.755-40.395,21.128c-23.481-0.918-42.725-20.016-43.814-43.48c-0.586-12.647,3.885-24.634,12.591-33.753
			C324.335,284.568,336.079,279.542,348.691,279.542z M272.914,328.843c1.806,38.969,33.764,70.687,72.753,72.209
			c23.167,0.906,45.464-8.967,60.435-26.253c3.362,2.116,5.595,5.869,5.571,10.106l-0.559,96.946H99.571V168.456l96.128,0.691h0.194
			c22.987-0.13,41.688-18.938,41.688-41.924v-8.366l-6.961-4.446c-13.873-8.858-21.771-23.959-21.128-40.396
			c0.917-23.48,20.015-42.725,43.479-43.813c12.638-0.586,24.634,3.884,33.753,12.59c9.126,8.713,14.152,20.456,14.152,33.068
			c0,15.675-7.912,30.087-21.166,38.55l-6.961,4.446v8.26c0,23.08,18.777,41.888,41.792,41.924l97.751,0.583l-0.446,96.101
			c-0.02,4.241-2.285,7.964-5.663,10.044c-14.314-16.68-35.124-26.374-57.492-26.374c-20.931,0-40.419,8.339-54.875,23.482
			C279.365,288.01,271.942,307.886,272.914,328.843z"/>
	</g>
</g>
<g>
</g>
<g>
</g>
<g>
</g>
<g>
</g>
<g>
</g>
<g>
</g>
<g>
</g>
<g>
</g>
<g>
</g>
<g>
</g>
<g>
</g>
<g>
</g>
<g>
</g>
<g>
</g>
<g>
</g>
</svg>
